<svg xmlns="http://www.w3.org/2000/svg" width="595.28" height="595.28" viewBox="0 0 595.28 595.28" xmlSpace="preserve">
  <path fill="#a8a4ff" d="M340.137 340.294h61.959v11.887h-61.959v-11.887zm-1.895-1.157c.044-.015.088-.031.133-.044l-.131-.001-.002.045zm-87.499 14.455.096-.001h-.096v.001zm1.333-1.411h61.958v-11.887h-61.958v11.887zm-85.85 0h61.959v-11.887h-61.959v11.887zm-2.483 1.411.056-.001c-.02-.002-.037-.006-.056-.009v.01zm.498-14.425c.071-.027.146-.051.22-.074l-.218-.002-.002.076zm-86.076 13.014h61.959v-11.887H78.165v11.887zm-1.422 1.411.096-.001h-.096v.001zm261.5-110.5-.021.617c.094-.033.19-.063.289-.089.263-.102.522-.169.722-.169h45.666l-46.656-.359zm1.894 13.654h53.032l8.927-.136v-11.75h-61.959v11.886zm-88.061 0h54.093l7.866-.12V244.86h-61.958l-.001 11.886zm-.833-13.654-.012.359h46.667l-46.655-.359zm-85.017 13.654h52.943l9.016-.138V244.86h-61.959v11.886zm-1.983-13.654-.022.649a3.62 3.62 0 0 1 .378-.121c.264-.102.522-.169.722-.169h45.578l-46.656-.359zm-86.078 13.654h54.004l7.955-.122V244.86H78.165v11.886zm-.922-13.654-.013.361.03-.002h46.638l-46.655-.359zm262.894-81.781h15.996l45.963-.702v-11.184h-61.959v11.886zm-1.935-13.03c.1-.036.204-.068.309-.096.263-.102.522-.169.722-.169h64.011v-.424l-65-.5-.042 1.189zm-86.991-.265h64.164c.236 0 .409.021.533.058.117-.012.23-.02.335-.018v-.464l-65-.5-.032.924zm.865 13.295h17.057l44.902-.686v-11.2h-61.958l-.001 11.886zm-87.875-12.996c.127-.051.261-.094.397-.13.264-.102.522-.169.722-.169h63.922v-.424l-65-.5-.041 1.223zm2.025 12.996h15.907l46.052-.703v-11.183h-61.959v11.886zm-88.061 0h16.968l44.991-.687v-11.199H78.165v11.886zm-.954-13.29c.016-.001.034-.004.049-.004h64.204c.236 0 .409.021.533.058.085-.009.167-.014.247-.016v-.467l-65-.5-.033.929zM445.946 463.17c-4.389 2.055-8.954 3.865-13.167 6.25-1.459.827-5.607 3.062-2.407 4.776 1.708.915 3.518 1.518 5.376 2.042 4.618 1.305 9.621 1.606 14.396 1.665 7.155.087 29.933-.429 23.3-12.782-8.398 2.888-19.217 1.636-27.498-1.951zm94.783 10.401c-3.258.632-6.554.97-9.987.742-4.766-.316-10.008-.172-14.907-.949 4.337 6.55 12.825 10.455 20.325 11.583.976.146 2.551.408 4.143.45 2.003-.231 3.846-.746 5.114-1.874a2.73 2.73 0 0 0 .208-.557c.892-3.531-2.546-7.036-4.896-9.395zm-92.486-278.145.198-.617c-.157.246-.313.492-.491.729-.07.093-.144.181-.216.271.31-.237.509-.383.509-.383zm1.111-20.707.019-.098-.526.041c-.017.381-.048.75-.097 1.103.125.037.25.069.375.1l.229-1.146zm45.943 10.294c-3.346-2.499-7.455-4.056-10.935-5.01a34.222 34.222 0 0 1-6.019-1.25c-.852-.121-1.354-.165-1.354-.165s-.2.153-.536.393c-4.975 4.143-15.246 7.717-20.711 5.179a6.257 6.257 0 0 1-1.566-1.016c-1.292-1.164-2.06-2.923-2.033-5.429-1.283.392-2.624.418-3.943.178-.595 1.509-1.585 2.805-3.011 4.086-3.476 3.124-5.762 7.051-7.537 11.325-2.566 6.18-4.875 12.426-7.908 18.349.192.165.304.404.265.736-1.094 9.379 4.76 17.559 5.099 26.771.327 8.885-1.974 17.001-3.994 25.55a1.063 1.063 0 0 1-.099.254c2.408 2.556 5.222 4.554 8.323 6.065a74.27 74.27 0 0 0 4.91 1.932c14.073 4.382 31.975 1.026 44.327-4.028-2.79-7.343-2.122-14.476-1.446-22.253a.89.89 0 0 1 .09-.305l-.156-.108a28.273 28.273 0 0 1-6.051-2.871c-7.073-4.455-13.824-10.185-20.012-15.802-3.226-2.928-5.848-7.064-9.001-10.343a1.448 1.448 0 0 1-.576-.125c-.337-.16-.342-.424-.213-.665-1.203-1.156-2.493-2.169-3.926-2.936-.38.132-.762.195-1.024.126-7.639-2.005-9.453-8.396-4.685-14.561 1.481-1.916 3.794-3.108 4.84-5.375.882-1.912 1.391-4.027 2.363-5.893 1.104-2.116 2.449-3.789 4.995-3.66.207.011.397.046.575.101.687.209 1.167.731 1.514 1.421 1.052 2.089.835 5.755 1.09 7.24.64 3.729 2.94 7.773 5.675 11.125.035.011.073.008.107.021 1.449.585 2.98 1.286 4.145 2.355.692.636 1.435 1.466 1.537 2.45.027.26.023.508-.007.746 3.843 2.89 8.171 5.008 12.308 7.397-1.605-6.061-.828-12.439-.766-18.667.012-1.144 2.933-1.675 2.919-.285-.068 6.773-1 13.698 1.371 20.204.104.287-.002.554-.226.774.235.155.475.305.708.464.063-.344.81-.885 1.54-1.012 6.042-1.054 12.754-1.556 18.859-.142a85.262 85.262 0 0 0-1.035-11.36c-1.244-7.843-3.617-15.983-8.79-21.981z"/>
  <path d="M458.767 131.653c-2.138 1.527-6.87 4.266-4.947 7.479.627 1.05-2.192 1.972-2.689 1.141-2.489-4.161 2.971-7.455 5.833-9.501.918-.656 3.401-.261 1.803.881zm-8.534 12.946c.022-.329-2.843-.031-2.897.776-.037.54-.092 1.051.265 1.496.301.376 1.182.108 1.555.008.097-.026 1.567-.504 1.342-.785-.356-.444-.301-.955-.265-1.495zm16.44-7.965a1.9 1.9 0 0 0 1.884-.899c.417-.685.853-1.247.943-2.072.167-1.528-2.793-1.15-2.94.203-.063.579-.467.984-.783 1.502-.389.64.342 1.193.896 1.266zm-16.536-4.27c.604.256 1.515.048 2.046-.293.917-.59 1.801-1.194 2.233-2.236.25-.602-.972-.579-1.23-.544-.587.081-1.408.338-1.658.94-.219.527-.678.808-1.114 1.088-.339.218-.923.771-.277 1.045zM550.71 470.25c-.028.395-.354.826-1.082 1.041-1.956.58-3.893 1.125-5.832 1.601 2.53 2.579 6.677 7.195 4.229 10.548-1.885 2.582-5.857 3.233-8.839 3.209-10.042-.08-22.39-4.806-27.231-14.168-.252-.075-.513-.13-.761-.213-6.434-2.141-7.115-7.294-8.75-13.389-2.294-8.552-4.139-17.211-6.235-25.812-4.876-20.001-12.682-39.141-18.954-58.733-5.664-17.689-11.141-35.439-17.221-52.989-1.477 47.143-6.587 96.745 22.171 137.443.132.186.163.396.001.588-1.658 1.958-3.718 3.475-6.035 4.616 7.837 14.711-18.433 16.142-27.046 15.947-6.135-.139-17.17-.122-21.927-4.805-4.827-4.753 10.261-10.754 16.277-13.146-1.809-.951-3.455-2.016-4.862-3.179a.337.337 0 0 1-.131-.223c-.406-.001-.707-.1-.708-.321-.036-5.993-.387-11.949-.964-17.879a1.281 1.281 0 0 1-.205.019H46.385c-.659.177-1.363.183-1.568-.047-.413-.098-.348-.344-.064-.603V121.297c0-.383.44-.69.976-.882h-.434c-1.946 0 .261-1.409 1.19-1.409H437.72c.861-.497 2.321-.394 2.321.69v5.491c1.697-2.295 4.836-4.079 8.079-6.221 2.113-1.987 4.258-3.929 6.701-5.547 2.282-2.197 5.407-3.261 8.334-3.748 5.062-1.317 10.264-.997 15.505 1.087.335.133.515.307.585.496.298-.141.599-.242.823-.256 5.75-.366 10.571 1.87 14.006 5.559 3.037 2.294 5.377 5.641 5.244 10.565.306 1.568.46 3.187.442 4.828-.022 2.038-.387 4.162-.851 6.143-.098.419-.159.767-.203 1.089.185 1.34.48 2.559.908 3.646.081.163.161.32.25.507 2.09 4.381 5.63 5.948 10.155 7.015 5.928 1.397 13.791 4.53 17.235 9.895 2.361 3.677 2.545 7.475.777 11.46-2.046 4.611-2.938 8.274-.113 12.746 3.625 5.738 6.009 13.641 4.789 20.479a18.728 18.728 0 0 1-1.081 3.765c-.603 2.729-1.889 5.059-4.344 6.368-.26.139-.523.274-.789.407-4.361 3.386-10.363 4.752-16.34 4.824a48.277 48.277 0 0 1-2.17.291c.068 8.267-.923 17.444-6.159 23.176-3.162 3.461-7.533 4.076-11.813 3.275-.626 7.216-1.167 13.934 1.326 20.78.353.022.655.152.8.426 8.083 15.313 12.338 32.149 15.187 49.141 2.816 16.801 3.781 34.189 7.771 50.762 4.242 17.616 13.042 33.651 18.567 50.849 5.426 16.89 8.018 34.903 17.06 50.426a.761.761 0 0 1-.012.83zm-63.468-223.922c-.061-.02-.119-.043-.18-.063a28.273 28.273 0 0 1-6.051-2.871c-7.073-4.455-13.824-10.185-20.012-15.802-3.226-2.928-5.848-7.064-9.001-10.343a1.448 1.448 0 0 1-.576-.125c-.337-.16-.342-.424-.213-.665-1.203-1.156-2.493-2.169-3.926-2.936-.38.132-.762.195-1.024.126-7.639-2.005-9.453-8.396-4.685-14.561 1.481-1.916 3.794-3.108 4.84-5.375.882-1.912 1.391-4.027 2.363-5.893 1.104-2.116 2.449-3.789 4.995-3.66.207.011.397.046.575.101.687.209 1.167.731 1.514 1.421 1.052 2.089.835 5.755 1.09 7.24.64 3.729 2.94 7.773 5.675 11.125.035.011.073.008.107.021 1.449.585 2.98 1.286 4.145 2.355.692.636 1.435 1.466 1.537 2.45.027.26.023.508-.007.746 3.843 2.89 8.171 5.008 12.308 7.397-1.605-6.061-.828-12.439-.766-18.667.012-1.144 2.933-1.675 2.919-.285-.068 6.773-1 13.698 1.371 20.204.104.287-.002.554-.226.774.235.155.475.305.708.464.063-.344.81-.885 1.54-1.012 6.042-1.054 12.754-1.556 18.859-.142a85.262 85.262 0 0 0-1.035-11.36c-1.243-7.842-3.616-15.982-8.789-21.98-3.346-2.499-7.455-4.056-10.935-5.01a34.222 34.222 0 0 1-6.019-1.25 28.242 28.242 0 0 0-1.354-.165l-.049-.025c-.154.14-.319.279-.486.418-4.975 4.143-15.246 7.717-20.711 5.179a6.257 6.257 0 0 1-1.566-1.016c-1.292-1.164-2.06-2.923-2.033-5.429-1.283.392-2.624.418-3.943.178-.595 1.509-1.585 2.805-3.011 4.086-3.476 3.124-5.762 7.051-7.537 11.325-2.566 6.18-4.875 12.426-7.908 18.349.192.165.304.404.265.736-1.094 9.379 4.76 17.559 5.099 26.771.327 8.885-1.974 17.001-3.994 25.55a1.063 1.063 0 0 1-.099.254c2.408 2.556 5.222 4.554 8.323 6.065a34.827 34.827 0 0 0 4.91 1.932c14.073 4.382 31.975 1.026 44.327-4.028-2.79-7.343-2.122-14.476-1.446-22.253a.89.89 0 0 1 .09-.305c.006-.016.014-.03.022-.046zm-51.766-54.274c1.158-2.557 2.477-4.995 4.302-7.15 2.227-2.628 5.038-4.596 5.915-7.845-.351-.331-.177-.763.222-1.109.032-.271.052-.552.058-.842.006-.356.345-.646.786-.848-2.457-1.162-2.102-6.386-2.72-8.548-.2-.7 2.691-1.497 2.897-.776.672 2.35.353 5.164 1.552 7.35.462.843.908.676 1.278.115.262-1.629.576-3.887.703-6.016a10.997 10.997 0 0 0-.885-2.753c-.856-1.775-1.915-3.079-3.693-3.973-.903-.454-2.309-1.1-3.771-1.494-1.013-.025-2.1-.027-3.265-.027-.412 0-.787.088-1.134.236a2.698 2.698 0 0 0-.587.506c-2.763 3.278-1.333 8.506-1.251 12.41.006.266-.262.494-.635.667-.714 4.282-5.977 9.031-8.55 11.904-4.579 5.111-9.379 10.27-14.753 14.562-1.87 1.493-4.3 2.621-5.356 4.875-1.328 2.834-1.376 6.189-.421 9.153.905 2.807 2.403 5.678 4.874 7.427 4.588 3.248 8.928.992 12.559-2.571.095-.094.235-.173.396-.24 4.944-7.877 7.664-16.59 11.479-25.013zm29.725 18.328.016-.019.023-.03a40.002 40.002 0 0 1-2.657-2.3c-.326.615-1.071.863-1.733.832.046.16.088.321.152.474l.032.079a3.739 3.739 0 0 0 .517.755l.059.063a3.84 3.84 0 0 0 .579.429 4.046 4.046 0 0 0 .496.2l.094.028c.109.023.219.044.33.059.099.013.197.02.296.027.062 0 .128.001.167-.001.119-.006.238-.013.356-.027l.038-.004c.184-.038.364-.093.542-.15.119-.054.342-.151.43-.201l.044-.034c.074-.058.148-.118.219-.18zm-11.834 4.681c1.741-1.05 3.358-2.331 4.528-3.999a1.53 1.53 0 0 1 .464-.409c-.298-.585-.511-1.2-.587-1.856-.113-.972-.317-2.565.621-3.168a4.891 4.891 0 0 1 1.345-.595c-2.275-2.678-4.124-5.651-5.042-8.658-.553-1.81-.668-3.503-.854-5.372-.086-.866-.531-6.616-1.798-4.186-1.367 2.622-2.013 5.514-3.601 7.991-.157.246-.313.492-.491.729-.07.093-.144.181-.216.271-2.108 2.634-5.253 4.283-5.89 7.963-.792 4.578 1.957 7.176 6.184 8.286.072.019.127.042.184.065.337-.083.648-.11.854-.021 1.67.727 3.058 1.762 4.299 2.959zm-4.617-39.299c.125.037.25.069.375.1l.229-1.146.019-.098c.016-.081.04-.206.072-.381-.187.053-.378.1-.58.137-.002.099-.014.188-.018.285-.016.381-.048.75-.097 1.103zm5.425.183a.645.645 0 0 1 .059.348l.139-.404-.198.056zm.868 1.366c-.159 10.108 15.362 5.333 20.084.237-1.768-.795-3.408-1.774-4.823-2.967-1.738-1.465-2.688-3.01-3.092-4.604-.479-1.153-.607-2.352-.171-3.551.044-.122.093-.251.139-.375.395-1.992 1.311-4.023 2.339-6.042 1.875-4.714 3.779-9.393 4.155-11.27.001-.007.001-.015.003-.022-.249-1.204-.919-1.996-1.612-3.077-.745-.883-1.44-1.846-1.347-3.062-.336-1.681.268-3.045 1.791-4.87 2.544-3.048 4.305-5.122 4.756-9.143.485-4.328-1.801-6.129-5.248-6.908h-.001l-.003-.001a21.507 21.507 0 0 0-2.758-.417c-1.132-.104-.979-.706-.423-1.174l-.296-.148c-.612.419-1.563.558-2.192.42-1.45-.318-2.028-1.563-2.875-2.186a45.652 45.652 0 0 0-2.157-.06c-.511.235-1.11.613-1.854 1.216-3.612 2.928-7.077 6.765-9.8 10.54-4.644 6.438-7.568 15.749-1.743 22.489 2.675 3.095 6.571 5.117 8.91 8.49 3.355 4.84 1.91 10.531.044 15.679-.158.434-1.069.731-1.826.806zm50.096 42.917c-6.135-1.999-13.111-1.581-19.37-.489a2.911 2.911 0 0 1-.647.053c2.489 1.743 4.801 3.749 6.751 6.307.716.939-2.079 1.941-2.689 1.141-5.254-6.893-13.241-10.044-20.388-14.409a33.732 33.732 0 0 1-1.626-1.068 6.06 6.06 0 0 1-2.05 1.139c-1.728.57-3.905.41-5.417-.667-1.44 1.646-3.26 2.968-5.167 4.043 2.321 2.583 4.216 5.642 6.743 8.067 4.956 4.757 10.452 9.177 15.863 13.408 4.5 3.519 10.044 7.854 15.958 8.466 5.365.554 8.213-4.124 9.601-8.557 1.712-5.467 2.426-11.463 2.438-17.434zm-68.474 218.767c-3.225-31.248-12.544-61.802-15.057-93.179-1.231-15.378-2.094-30.893-1.3-46.317.587-11.409 1.372-24.348 7.471-34.366.057-.094.107-.192.165-.286.009-.014.024-.027.036-.042a1.34 1.34 0 0 1 .138-.132l.021-.016c.028-.021.054-.041.085-.06l.024-.017c2.036-8.509 5.198-17.685 3.772-26.542-1.164-7.229-4.641-14.168-5.051-21.478-.201.326-.387.659-.594.981-.107.167-.347.313-.639.428-4.563 4.381-11.749 7.68-17.388 3.045-1.285-1.056-2.424-2.407-3.354-3.921v7.713c0 .785-1.836 1.251-2.583 1.057a1.239 1.239 0 0 1-.165.014h-63.859c-.545.075-1.009.01-1.106-.216l-.003-.007c-.01-.025-.037-.042-.037-.072v-54.765c0-.06.011-.119.032-.175 0-.412 1.3-1.123 1.961-1.123h64.204c.458 0 .679.08.748.199.457-.016.81.081.81.323v31.72c1.308-1.477 2.952-2.454 4.621-3.832 2.98-2.461 5.784-5.143 8.492-7.898 3.547-3.608 7.051-7.307 10.164-11.302 1.394-1.789 3.74-4.248 4.112-6.666a.88.88 0 0 1-.384-.311c-2.615-3.891-5.442-8.535-4.786-13.456.62-4.646 3.308-7.613 6.064-11.208 3.323-4.335 3.156-8.269 3.827-12.93v-13.837a1.794 1.794 0 0 1-.499.092H47.623a.21.21 0 0 1 .029.105v318.475c129.669.002 259.341.002 389.013.002zm-34.569-214.526v-53.539h-61.959v53.539h61.959zm71.35 240.651c-8.4 2.887-19.219 1.635-27.5-1.952-4.389 2.055-8.954 3.865-13.167 6.25-1.459.827-5.607 3.062-2.407 4.776 1.708.915 3.518 1.518 5.376 2.042 4.618 1.305 9.621 1.606 14.396 1.665 7.157.088 29.935-.428 23.302-12.781zm71.97 18.401a2.73 2.73 0 0 0 .208-.557c.892-3.532-2.546-7.037-4.896-9.396-3.258.632-6.554.97-9.987.742-4.766-.316-10.008-.172-14.907-.949 4.337 6.55 12.825 10.455 20.325 11.583.976.146 2.551.408 4.143.45 2.148.059 4.325-.287 5.114-1.873zm2.253-13.575c-8.566-15.093-11.15-32.27-16.4-48.609-5.496-17.105-14.44-33.186-18.653-50.682-4.008-16.645-5.083-33.969-7.91-50.835-2.84-16.943-6.775-33.829-14.649-49.198a1.293 1.293 0 0 1-.107-.011c-17.684 7.274-45.67 11.235-60.698-3.448-5.61 10.863-5.977 25.022-6.236 36.784-.318 14.458.445 28.923 1.674 43.325 3.159 37.027 15.756 72.89 15.98 110.216v.001c.257.008.482.065.634.191 1.57 1.298 3.335 2.362 5.198 3.261.434.032.802.223.996.486 3.733 1.637 7.839 2.57 11.768 2.993 3.91.421 8.074.571 11.921-.401 1.586-.401 9.365-2.537 7.306-5.546a122.547 122.547 0 0 1-18.818-44.097c-6.806-32.434-3.149-65.732-2.374-98.541.006-.26.235-.493.558-.671-.553-1.552-1.099-3.104-1.664-4.652-.42-1.15 2.46-1.976 2.897-.776 7.23 19.818 13.443 39.974 19.857 60.065 5.677 17.785 12.94 35.265 17.8 53.276 2.216 8.211 4.04 16.516 6.016 24.787.928 3.882 1.859 7.769 2.953 11.608.84 2.949 1.473 8.298 4.47 9.86 5.993 3.124 14.006 2.552 20.571 2.988 5.952.397 11.283-.761 16.91-2.374zM143.021 170.044v54.765c0 .785-1.836 1.251-2.583 1.058a1.224 1.224 0 0 1-.164.014h-63.86c-.546.075-1.012.009-1.107-.218l-.002-.004c-.01-.026-.037-.043-.037-.073v-54.765c0-.061.011-.12.032-.177.004-.412 1.301-1.121 1.961-1.121h64.204c.457 0 .679.08.748.199.455-.016.808.081.808.322zm-64.856 54.427h61.959v-53.539H78.165v53.539zm64.856-76.089v13.252c0 .771-1.771 1.234-2.542 1.066a1.3 1.3 0 0 1-.206.02H76.279c-.482.047-.875-.021-.971-.222-.003-.008-.009-.015-.011-.023-.007-.022-.03-.039-.03-.064v-13.252c0-.453.611-.797 1.272-.974.243-.094.48-.156.672-.165.016-.001.034-.004.049-.004h64.204c.236 0 .409.021.533.058.085-.009.167-.014.247-.016.441-.009.777.088.777.324zm-47.888 12.929h44.991v-11.886H78.165v11.886h16.968zm135.949 8.733v54.765c0 .785-1.836 1.251-2.583 1.057a1.239 1.239 0 0 1-.165.014h-63.859c-.545.075-1.009.01-1.106-.216-.001-.002-.003-.004-.003-.007-.01-.025-.037-.042-.037-.072V170.82c0-.06.012-.119.032-.175 0-.412 1.3-1.123 1.961-1.123h64.204c.458 0 .679.08.748.199.455-.015.808.082.808.323zm-64.856 54.427h61.959v-53.539h-61.959v53.539zm64.856-76.089v13.252c0 .771-1.771 1.234-2.542 1.066a1.3 1.3 0 0 1-.206.02H164.34c-.552.054-1.012-.033-1.012-.31v-13.252c0-.358.385-.65.873-.843.127-.051.261-.094.397-.13.264-.102.522-.169.722-.169h64.203c.236 0 .409.021.533.058.559-.057 1.026.03 1.026.308zm-48.949 12.929h46.052v-11.886h-61.959v11.886h15.907zm134.799 8.733v54.765c0 .785-1.836 1.251-2.583 1.058a1.224 1.224 0 0 1-.164.014h-63.859c-.544.075-1.007.01-1.106-.215l-.004-.009c-.01-.024-.036-.042-.036-.071v-54.765c0-.06.012-.118.032-.173-.004-.411 1.299-1.125 1.96-1.125h64.204c.457 0 .679.08.748.199.456-.016.808.081.808.322zm-64.856 54.427h61.958v-53.539h-61.958v53.539zm64.856-76.089v13.252c0 .771-1.771 1.234-2.542 1.066a1.3 1.3 0 0 1-.206.02H250.19c-.552.054-1.012-.033-1.012-.31v-13.252c0-.452.61-.796 1.27-.973.264-.102.523-.169.723-.169h64.205c.236 0 .409.021.533.058.117-.012.23-.02.335-.018.397.005.688.106.688.326zm-47.799 12.929h44.902v-11.886h-61.958v11.886h17.056zm68.107 1.1v-13.252c0-.38.433-.685.962-.877.1-.036.204-.068.309-.096.263-.102.522-.169.722-.169h64.204c.236 0 .409.021.533.058.558-.057 1.025.029 1.025.308v13.252c0 .771-1.771 1.234-2.542 1.066a1.3 1.3 0 0 1-.206.02h-63.994c-.553.053-1.013-.033-1.013-.31zm64.856-12.986h-61.959v11.886h61.959v-11.886zM143.021 265.479v54.765c0 .785-1.836 1.251-2.583 1.058a1.224 1.224 0 0 1-.164.014h-63.86c-.546.075-1.012.009-1.107-.218l-.002-.004c-.01-.026-.037-.043-.037-.073v-54.765c0-.061.011-.12.032-.177.004-.412 1.301-1.121 1.961-1.121h64.204c.457 0 .679.08.748.199.455-.016.808.08.808.322zm-64.856 54.427h61.959v-53.539H78.165v53.539zm64.856-76.089v13.251c0 .771-1.767 1.233-2.54 1.067-.074.012-.145.02-.208.02H76.27c-.355.034-.657.001-.835-.095a.281.281 0 0 1-.128-.13c-.002-.007-.008-.014-.01-.021-.007-.022-.029-.038-.029-.063v-13.251c0-.453.611-.797 1.272-.974.251-.097.497-.161.691-.167l.03-.002h64.203c.236 0 .409.021.533.058.557-.058 1.024.028 1.024.307zm-10.852 12.929h7.955V244.86H78.165v11.886h54.004zm98.913 8.733v54.765c0 .785-1.836 1.251-2.583 1.057a1.239 1.239 0 0 1-.165.014h-63.859c-.545.075-1.009.01-1.106-.216-.001-.002-.003-.004-.003-.007-.01-.025-.037-.042-.037-.072v-54.765c0-.06.012-.119.032-.175 0-.412 1.3-1.123 1.961-1.123h64.204c.458 0 .679.08.748.199.455-.015.808.081.808.323zm-64.856 54.427h61.959v-53.539h-61.959v53.539zm64.856-76.089v13.251c0 .771-1.768 1.233-2.54 1.067-.074.012-.145.02-.208.02h-64.003c-.548.052-1.003-.035-1.003-.311v-13.251c0-.364.395-.658.893-.852a3.62 3.62 0 0 1 .378-.121c.264-.102.522-.169.722-.169h64.204c.236 0 .409.021.533.058.557-.057 1.024.029 1.024.308zm-11.913 12.929h9.016V244.86h-61.959v11.886h52.943zm97.763 8.733v54.765c0 .785-1.836 1.251-2.583 1.058a1.224 1.224 0 0 1-.164.014h-63.859c-.544.075-1.007.01-1.106-.215l-.004-.009c-.01-.024-.036-.042-.036-.071v-54.765c0-.06.012-.118.032-.173-.004-.411 1.299-1.125 1.96-1.125h64.204c.457 0 .679.08.748.199.456-.016.808.08.808.322zm-64.856 54.427h61.958v-53.539h-61.958v53.539zm64.856-76.089v13.251c0 .771-1.767 1.233-2.54 1.067-.074.012-.145.02-.208.02h-64.003c-.362.035-.67 0-.847-.101h-.001c-.09-.052-.155-.116-.155-.209v-13.251c0-.452.61-.796 1.27-.973.264-.102.523-.169.723-.169h64.204c.236 0 .409.021.533.058.557-.058 1.024.028 1.024.307zm-10.763 12.929h7.866V244.86h-61.958v11.886h54.092zm98.825 8.733v54.765c0 .785-1.836 1.251-2.583 1.057a1.239 1.239 0 0 1-.165.014h-63.859c-.545.075-1.009.01-1.106-.216l-.003-.007c-.01-.025-.037-.042-.037-.072v-54.765c0-.06.011-.119.032-.175 0-.412 1.3-1.123 1.961-1.123h64.204c.458 0 .679.08.748.199.455-.015.808.081.808.323zm-64.857 54.427h61.959v-53.539h-61.959v53.539zm64.857-76.089v13.251c0 .771-1.768 1.233-2.54 1.067-.074.012-.145.02-.208.02h-64.003c-.548.052-1.003-.035-1.003-.311v-13.251c0-.385.443-.692.982-.884.094-.033.19-.063.289-.089.263-.102.522-.169.722-.169h64.204c.236 0 .409.021.533.058.556-.057 1.024.029 1.024.308zm-11.825 12.929h8.927V244.86h-61.959v11.886h53.032zM143.021 360.915v54.764c0 .785-1.836 1.251-2.583 1.058a1.224 1.224 0 0 1-.164.014h-63.86c-.546.075-1.012.009-1.107-.218l-.002-.004c-.01-.026-.037-.043-.037-.073v-54.764c0-.061.011-.121.032-.177.003-.412 1.301-1.122 1.961-1.122h64.204c.458 0 .681.08.749.2.455-.016.807.08.807.322zM78.165 415.34h61.959v-53.539H78.165v53.539zm64.856-76.089v13.251c0 .77-1.764 1.232-2.538 1.067a1.356 1.356 0 0 1-.21.021H76.26c-.35.033-.646 0-.824-.095l-.009-.004a.275.275 0 0 1-.125-.133c-.002-.006-.007-.011-.008-.017-.007-.022-.029-.038-.029-.063v-13.251c0-.453.611-.797 1.272-.974.264-.102.522-.169.721-.169h64.204c.236 0 .409.021.533.058.559-.056 1.026.031 1.026.309zm-64.856 12.93h61.959v-11.887H78.165v11.887zm152.917 8.734v54.764c0 .785-1.836 1.251-2.583 1.057a1.239 1.239 0 0 1-.165.014h-63.859c-.545.075-1.009.01-1.106-.216-.001-.002-.003-.004-.003-.007-.01-.025-.037-.042-.037-.072v-54.764c0-.061.011-.119.032-.175-.001-.412 1.3-1.124 1.961-1.124h64.204c.458 0 .681.08.749.2.454-.015.807.081.807.323zm-64.856 54.425h61.959v-53.539h-61.959v53.539zm64.856-76.089v13.251c0 .77-1.764 1.232-2.538 1.067a1.368 1.368 0 0 1-.21.021h-64.012c-.191.018-.371.02-.523 0-.02-.002-.037-.006-.056-.009-.249-.041-.416-.138-.416-.303v-13.251c0-.369.405-.667.913-.86a3.783 3.783 0 0 1 .358-.113c.264-.102.522-.169.722-.169h64.204c.236 0 .409.021.533.058.558-.057 1.025.03 1.025.308zm-64.856 1.043v11.887h61.959v-11.887h-61.959zm150.706 20.621v54.764c0 .785-1.836 1.251-2.583 1.058a1.224 1.224 0 0 1-.164.014h-63.859c-.544.075-1.007.01-1.106-.215l-.004-.009c-.01-.024-.036-.042-.036-.071v-54.764c0-.06.012-.118.032-.173-.005-.412 1.298-1.125 1.96-1.125h64.204c.458 0 .681.08.749.2.455-.017.807.079.807.321zm-64.856 54.425h61.958v-53.539h-61.958v53.539zm64.856-76.089v13.251c0 .77-1.764 1.232-2.538 1.067a1.356 1.356 0 0 1-.21.021h-64.012c-.356.033-.658 0-.834-.1l-.01-.005a.323.323 0 0 1-.087-.069c-.004-.005-.004-.012-.008-.017-.026-.037-.055-.072-.055-.121v-13.251c0-.452.61-.796 1.27-.973.264-.102.523-.169.723-.169h64.204c.236 0 .409.021.533.058.557-.057 1.024.03 1.024.308zm-64.856 12.93h61.958v-11.887h-61.958v11.887zm152.918 8.734v54.764c0 .785-1.836 1.251-2.583 1.057a1.239 1.239 0 0 1-.165.014h-63.859c-.545.075-1.009.01-1.106-.216l-.003-.007c-.01-.025-.037-.042-.037-.072v-54.764c0-.061.011-.119.032-.175-.001-.412 1.3-1.124 1.961-1.124h64.204c.458 0 .68.08.749.2.454-.015.807.081.807.323zm-64.857 54.425h61.959v-53.539h-61.959v53.539zm64.857-76.089v13.251c0 .77-1.764 1.232-2.538 1.067a1.368 1.368 0 0 1-.21.021h-64.012a2.503 2.503 0 0 1-.458.001h-.033v-.005c-.233-.025-.398-.095-.46-.213l-.006-.013c-.012-.027-.038-.049-.038-.082v-13.251c0-.39.454-.699 1.002-.891.044-.015.088-.031.133-.044l.136-.038c.263-.102.522-.169.722-.169h64.204c.236 0 .409.021.533.058.557-.057 1.025.03 1.025.308zm-64.857 1.043v11.887h61.959v-11.887h-61.959zM119.284 187.335c-3.314 3.366-6.364 6.985-9.961 10.063-1.592 1.362-3.701 3.018-5.921 2.918-3.233-.146-4.416-5.442-5.027-7.746-.373-1.405-3.271-.629-2.897.776 1.391 5.24 4.558 11.285 10.921 8.541 6.279-2.708 10.663-8.882 15.332-13.622 1.288-1.309-1.494-1.898-2.447-.93zm91.193 97.825c-3.314 3.366-6.363 6.985-9.961 10.063-1.592 1.362-3.701 3.018-5.921 2.918-3.233-.146-4.416-5.442-5.027-7.746-.373-1.405-3.271-.629-2.897.776 1.391 5.241 4.557 11.285 10.921 8.541 6.279-2.708 10.663-8.881 15.331-13.622 1.288-1.31-1.493-1.898-2.446-.93zm173.544 93.403c-3.314 3.366-6.363 6.986-9.961 10.063-1.593 1.362-3.701 3.018-5.922 2.918-3.232-.146-4.416-5.443-5.027-7.746-.373-1.405-3.271-.629-2.897.776 1.39 5.24 4.557 11.286 10.921 8.541 6.28-2.708 10.664-8.881 15.332-13.623 1.288-1.308-1.493-1.896-2.446-.929zm-177.965 4.974c-3.314 3.366-6.363 6.986-9.961 10.063-1.592 1.362-3.701 3.018-5.921 2.918-3.233-.146-4.416-5.443-5.027-7.747-.373-1.405-3.271-.629-2.897.776 1.39 5.241 4.557 11.286 10.921 8.542 6.279-2.708 10.663-8.882 15.331-13.623 1.288-1.309-1.493-1.897-2.446-.929zm1.223-192.564c-4.211 2.654-8.948 4.242-13.417 6.287-2.132-2.203-3.859-4.716-4.848-7.638-.434-1.284-3.322-.478-2.897.776 1.054 3.116 2.884 5.795 5.139 8.143-2.563 1.353-4.98 2.965-7.081 5.166-1.211 1.27 1.618 1.384 2.359.607 1.785-1.871 3.833-3.3 6.013-4.51 3.455 3.207 7.657 5.766 11.582 7.972 1.064.598 3.632-.855 2.244-1.635-3.775-2.121-7.88-4.57-11.242-7.654 4.634-2.179 9.641-3.754 13.988-6.494 1.665-1.048-.822-1.662-1.84-1.02zm84.561 91.746c-4.211 2.654-8.949 4.242-13.417 6.287-2.132-2.203-3.86-4.716-4.848-7.638-.434-1.284-3.322-.478-2.897.776 1.053 3.116 2.884 5.795 5.139 8.143-2.563 1.353-4.981 2.965-7.081 5.166-1.211 1.27 1.618 1.384 2.359.607 1.785-1.87 3.833-3.299 6.013-4.51 3.455 3.207 7.657 5.766 11.583 7.971 1.064.598 3.632-.855 2.244-1.635-3.776-2.121-7.88-4.569-11.242-7.653 4.635-2.179 9.642-3.754 13.988-6.494 1.664-1.048-.822-1.662-1.841-1.02zm9.728-94.439c-10.813-.043-21.611-.696-32.424-.736-1.308-.005-2.996 1.977-1.036 1.984 10.813.041 21.611.693 32.424.736 1.308.006 2.996-1.976 1.036-1.984zm-11.786 11.804h-16.949c-1.29 0-3.002 1.959-1.043 1.959h16.949c1.289 0 3.002-1.959 1.043-1.959zm-.424 11.79c-5.444-2.181-11.134-2.293-16.92-2.296-1.661-.001-2.22 2.132-.254 2.133 5.326.003 10.494.119 15.503 2.125 1.234.494 3.385-1.275 1.671-1.962zm102.851 71.469c-10.813-.043-21.611-.696-32.424-.737-1.308-.005-2.996 1.977-1.036 1.984 10.813.041 21.612.694 32.424.737 1.308.006 2.995-1.976 1.036-1.984zm-11.787 11.803h-16.949c-1.29 0-3.002 1.959-1.043 1.959h16.949c1.289 0 3.002-1.959 1.043-1.959zm-.423 11.789c-5.444-2.181-11.134-2.293-16.92-2.296-1.661-.001-2.22 2.132-.254 2.133 5.326.003 10.494.119 15.503 2.125 1.234.494 3.385-1.275 1.671-1.962zm-255.29 68.706c-10.813-.043-21.612-.696-32.425-.736-1.308-.005-2.996 1.977-1.036 1.984 10.813.041 21.612.693 32.425.736 1.308.005 2.996-1.977 1.036-1.984zm-11.787 11.803H95.973c-1.29 0-3.002 1.959-1.043 1.959h16.949c1.29 0 3.002-1.959 1.043-1.959zm-.423 11.789c-5.444-2.18-11.134-2.292-16.92-2.295-1.661-.001-2.22 2.132-.254 2.133 5.326.003 10.494.118 15.503 2.125 1.234.493 3.385-1.277 1.671-1.963zm270.324-217.901c4.601 7.802 9.316 15.831 12.528 24.318.119.314-.354.646-.566.758-5.339 2.829-10.979 3.817-16.54 6.054a2.24 2.24 0 0 1-.773.154c-.288.239-.858.428-1.404.528a2.224 2.224 0 0 1-.805.256c-6.045.649-13.302-.39-16.333-6.221-.375-.062-.692-.237-.835-.57-1.635-3.819-3.273-7.644-4.748-11.529-.544-1.434-2.421-4.543-.92-5.859a1.49 1.49 0 0 1 .507-.283c.167-.205.479-.396.999-.506 9.17-1.933 18.222-4.908 27.266-7.369.499-.135 1.313-.258 1.624.269zm-8.185 30.695c-.418-2.59-1.598-4.982-1.973-7.598-3.365 1.628-6.917 2.373-10.642 2.339 2.525 4.304 7.784 5.551 12.615 5.259zm14.202-13.65a286.307 286.307 0 0 0-8.556-15.65c-8.458 2.343-16.926 5.062-25.497 6.904 0 .231-.132.501-.47.797.792-.694.403-.52.7.422.163.515.33 1.027.514 1.535a129.777 129.777 0 0 0 1.566 4.096 431.682 431.682 0 0 0 3.653 8.781c.263.023.483.103.615.255 4.248.497 7.872-.118 11.541-2.434.226-.142 2.515-.959 2.548-.383.171 3 1.613 5.65 2.082 8.553 3.561-1.365 7.36-1.973 10.864-3.387 2.737-1.104 4.206-1.349 2.944-4.191a120.098 120.098 0 0 0-2.504-5.298zm-262.963 83.458c1.524 8.928 3.076 18.108 3.059 27.184-.001.729-1.085 1.052-1.665 1.124-5.989.745-11.625-.343-17.612-.231-.506.009-.735-.088-.785-.237-.514.121-1.07.167-1.404.117a1.257 1.257 0 0 1-.461-.003c-5.723-1.483-12.08-5.069-12.604-11.534-.315-.132-.541-.377-.557-.768-.16-3.865-.368-7.741-.337-11.61.014-1.708-.386-4.103 1.616-4.752.468-.152.841-.129 1.109-.008.38-.154.755-.254.99-.231 8.659.814 18.685.403 27.783.578.241.002.81.031.868.371zm-18.34 26.109c.405-2.54.171-5.157.869-7.681-3.777.582-7.333.237-10.814-1.037 1.22 4.476 5.533 7.306 9.945 8.718zm18.485.875c-.078-6.606-1.045-13.233-2.022-19.752a340.213 340.213 0 0 0-.961-6.097l-1.845-.036c-8.146-.159-16.49.179-24.625-.486-.677 1.52-.135 4.632-.1 6.12.063 2.675.169 5.348.278 8.021.265.038.449.139.491.312 4.148 2.194 8.31 3.149 12.984 2.189.177-.037 1.289-.241 1.142.214-.976 3.031-.439 6.21-1.218 9.245.241-.096.477-.159.671-.162 5.149-.096 10.101.776 15.205.432zm169.529 66.973c1.524 8.928 3.076 18.107 3.059 27.183-.001.729-1.085 1.052-1.665 1.124-5.99.745-11.625-.342-17.613-.23-.507.009-.735-.089-.785-.238-.514.121-1.07.167-1.404.117a1.257 1.257 0 0 1-.461-.003c-5.723-1.483-12.079-5.068-12.604-11.532-.316-.132-.542-.377-.558-.769-.16-3.866-.368-7.741-.336-11.611.014-1.705-.387-4.104 1.616-4.752.467-.151.841-.128 1.109-.007.38-.154.755-.254.99-.232 8.661.805 18.683.403 27.783.578.243.003.811.032.869.372zm-18.34 26.108c.406-2.54.172-5.157.869-7.68-3.777.582-7.333.237-10.814-1.037 1.22 4.476 5.534 7.305 9.945 8.717zm18.486.875c-.079-6.606-1.045-13.233-2.023-19.751a338.8 338.8 0 0 0-.961-6.097l-1.845-.036c-8.148-.159-16.488.171-24.624-.486-.678 1.52-.136 4.632-.101 6.12.063 2.674.168 5.347.278 8.02.265.038.45.139.492.312 4.148 2.194 8.31 3.149 12.984 2.19.177-.037 1.289-.241 1.142.214-.976 3.031-.439 6.209-1.218 9.245.24-.096.477-.159.671-.162 5.149-.096 10.101.776 15.205.431z" fill="#635fc7"/>
</svg>
